<mxfile host="app.diagrams.net" modified="2021-04-06T02:34:29.964Z" agent="5.0 (X11; Linux x86_64) AppleWebKit/537.36 (KHTML, like Gecko) Chrome/86.0.4240.111 Safari/537.36" etag="B0BvnJjaQRccWOpejktI" version="14.5.6" type="github">
  <diagram name="Page-1" id="12e1b939-464a-85fe-373e-61e167be1490">
    <mxGraphModel dx="1248" dy="656" grid="1" gridSize="10" guides="1" tooltips="1" connect="1" arrows="1" fold="1" page="1" pageScale="1.5" pageWidth="1169" pageHeight="826" background="#ffffff" math="0" shadow="0">
      <root>
        <mxCell id="0" />
        <mxCell id="1" parent="0" />
        <mxCell id="60da8b9f42644d3a-2" value="" style="whiteSpace=wrap;html=1;rounded=1;shadow=0;strokeWidth=8;fontSize=20;align=center;fillColor=#FED217;strokeColor=#FFFFFF;" parent="1" vertex="1">
          <mxGeometry x="316" y="405" width="280" height="430" as="geometry" />
        </mxCell>
        <mxCell id="60da8b9f42644d3a-3" value="ATTRACT" style="text;html=1;strokeColor=none;fillColor=none;align=center;verticalAlign=middle;whiteSpace=wrap;rounded=0;shadow=0;fontSize=27;fontColor=#FFFFFF;fontStyle=1" parent="1" vertex="1">
          <mxGeometry x="316" y="425" width="280" height="60" as="geometry" />
        </mxCell>
        <mxCell id="60da8b9f42644d3a-4" value="Blog&lt;div&gt;Keywords&lt;/div&gt;&lt;div&gt;Social Media&lt;/div&gt;" style="text;html=1;strokeColor=none;fillColor=none;align=center;verticalAlign=middle;whiteSpace=wrap;rounded=0;shadow=0;fontSize=14;fontColor=#FFFFFF;" parent="1" vertex="1">
          <mxGeometry x="316" y="725" width="280" height="90" as="geometry" />
        </mxCell>
        <mxCell id="60da8b9f42644d3a-6" value="" style="line;strokeWidth=2;html=1;rounded=0;shadow=0;fontSize=27;align=center;fillColor=none;strokeColor=#FFFFFF;" parent="1" vertex="1">
          <mxGeometry x="336" y="485" width="240" height="10" as="geometry" />
        </mxCell>
        <mxCell id="60da8b9f42644d3a-7" value="" style="line;strokeWidth=2;html=1;rounded=0;shadow=0;fontSize=27;align=center;fillColor=none;strokeColor=#FFFFFF;" parent="1" vertex="1">
          <mxGeometry x="336" y="705" width="240" height="10" as="geometry" />
        </mxCell>
        <mxCell id="60da8b9f42644d3a-8" value="STRANGERS" style="ellipse;whiteSpace=wrap;html=1;rounded=0;shadow=0;strokeWidth=6;fontSize=14;align=center;fillColor=#BFB4A9;strokeColor=#FFFFFF;fontColor=#FFFFFF;" parent="1" vertex="1">
          <mxGeometry x="259" y="545" width="115" height="115" as="geometry" />
        </mxCell>
        <mxCell id="60da8b9f42644d3a-9" value="" style="html=1;shadow=0;dashed=0;align=center;verticalAlign=middle;shape=mxgraph.arrows2.stylisedArrow;dy=0.6;dx=40;notch=15;feather=0.4;rounded=0;strokeWidth=1;fontSize=27;strokeColor=none;fillColor=#fff2cc;" parent="1" vertex="1">
          <mxGeometry x="406" y="573" width="100" height="60" as="geometry" />
        </mxCell>
        <mxCell id="60da8b9f42644d3a-17" value="" style="whiteSpace=wrap;html=1;rounded=1;shadow=0;strokeWidth=8;fontSize=20;align=center;fillColor=#FFC001;strokeColor=#FFFFFF;" parent="1" vertex="1">
          <mxGeometry x="596" y="405" width="280" height="430" as="geometry" />
        </mxCell>
        <mxCell id="60da8b9f42644d3a-18" value="CONVERT" style="text;html=1;strokeColor=none;fillColor=none;align=center;verticalAlign=middle;whiteSpace=wrap;rounded=0;shadow=0;fontSize=27;fontColor=#FFFFFF;fontStyle=1" parent="1" vertex="1">
          <mxGeometry x="596" y="425" width="280" height="60" as="geometry" />
        </mxCell>
        <mxCell id="60da8b9f42644d3a-19" value="Forms&lt;div&gt;Calls-to-Action&lt;/div&gt;&lt;div&gt;Landing Pages&lt;/div&gt;" style="text;html=1;strokeColor=none;fillColor=none;align=center;verticalAlign=middle;whiteSpace=wrap;rounded=0;shadow=0;fontSize=14;fontColor=#FFFFFF;" parent="1" vertex="1">
          <mxGeometry x="596" y="725" width="280" height="90" as="geometry" />
        </mxCell>
        <mxCell id="60da8b9f42644d3a-20" value="" style="line;strokeWidth=2;html=1;rounded=0;shadow=0;fontSize=27;align=center;fillColor=none;strokeColor=#FFFFFF;" parent="1" vertex="1">
          <mxGeometry x="616" y="485" width="240" height="10" as="geometry" />
        </mxCell>
        <mxCell id="60da8b9f42644d3a-21" value="" style="line;strokeWidth=2;html=1;rounded=0;shadow=0;fontSize=27;align=center;fillColor=none;strokeColor=#FFFFFF;" parent="1" vertex="1">
          <mxGeometry x="616" y="705" width="240" height="10" as="geometry" />
        </mxCell>
        <mxCell id="60da8b9f42644d3a-22" value="VISITORS" style="ellipse;whiteSpace=wrap;html=1;rounded=0;shadow=0;strokeWidth=6;fontSize=14;align=center;fillColor=#397DAA;strokeColor=#FFFFFF;fontColor=#FFFFFF;" parent="1" vertex="1">
          <mxGeometry x="539" y="545" width="115" height="115" as="geometry" />
        </mxCell>
        <mxCell id="60da8b9f42644d3a-23" value="" style="html=1;shadow=0;dashed=0;align=center;verticalAlign=middle;shape=mxgraph.arrows2.stylisedArrow;dy=0.6;dx=40;notch=15;feather=0.4;rounded=0;strokeWidth=1;fontSize=27;strokeColor=none;fillColor=#fff2cc;" parent="1" vertex="1">
          <mxGeometry x="686" y="573" width="100" height="60" as="geometry" />
        </mxCell>
        <mxCell id="60da8b9f42644d3a-24" value="" style="whiteSpace=wrap;html=1;rounded=1;shadow=0;strokeWidth=8;fontSize=20;align=center;fillColor=#FFB001;strokeColor=#FFFFFF;" parent="1" vertex="1">
          <mxGeometry x="876" y="405" width="280" height="430" as="geometry" />
        </mxCell>
        <mxCell id="60da8b9f42644d3a-25" value="CLOSE" style="text;html=1;strokeColor=none;fillColor=none;align=center;verticalAlign=middle;whiteSpace=wrap;rounded=0;shadow=0;fontSize=27;fontColor=#FFFFFF;fontStyle=1" parent="1" vertex="1">
          <mxGeometry x="876" y="425" width="280" height="60" as="geometry" />
        </mxCell>
        <mxCell id="60da8b9f42644d3a-26" value="Email&lt;div&gt;Signals&lt;/div&gt;&lt;div&gt;Workflows&lt;/div&gt;" style="text;html=1;strokeColor=none;fillColor=none;align=center;verticalAlign=middle;whiteSpace=wrap;rounded=0;shadow=0;fontSize=14;fontColor=#FFFFFF;" parent="1" vertex="1">
          <mxGeometry x="876" y="725" width="280" height="90" as="geometry" />
        </mxCell>
        <mxCell id="60da8b9f42644d3a-27" value="" style="line;strokeWidth=2;html=1;rounded=0;shadow=0;fontSize=27;align=center;fillColor=none;strokeColor=#FFFFFF;" parent="1" vertex="1">
          <mxGeometry x="896" y="485" width="240" height="10" as="geometry" />
        </mxCell>
        <mxCell id="60da8b9f42644d3a-28" value="" style="line;strokeWidth=2;html=1;rounded=0;shadow=0;fontSize=27;align=center;fillColor=none;strokeColor=#FFFFFF;" parent="1" vertex="1">
          <mxGeometry x="896" y="705" width="240" height="10" as="geometry" />
        </mxCell>
        <mxCell id="60da8b9f42644d3a-29" value="LEADS" style="ellipse;whiteSpace=wrap;html=1;rounded=0;shadow=0;strokeWidth=6;fontSize=14;align=center;fillColor=#EF9353;strokeColor=#FFFFFF;fontColor=#FFFFFF;" parent="1" vertex="1">
          <mxGeometry x="819" y="545" width="115" height="115" as="geometry" />
        </mxCell>
        <mxCell id="60da8b9f42644d3a-30" value="" style="html=1;shadow=0;dashed=0;align=center;verticalAlign=middle;shape=mxgraph.arrows2.stylisedArrow;dy=0.6;dx=40;notch=15;feather=0.4;rounded=0;strokeWidth=1;fontSize=27;strokeColor=none;fillColor=#fff2cc;" parent="1" vertex="1">
          <mxGeometry x="966" y="573" width="100" height="60" as="geometry" />
        </mxCell>
        <mxCell id="60da8b9f42644d3a-31" value="" style="whiteSpace=wrap;html=1;rounded=1;shadow=0;strokeWidth=8;fontSize=20;align=center;fillColor=#FE9900;strokeColor=#FFFFFF;" parent="1" vertex="1">
          <mxGeometry x="1156" y="405" width="280" height="430" as="geometry" />
        </mxCell>
        <mxCell id="60da8b9f42644d3a-32" value="DELIGHT" style="text;html=1;strokeColor=none;fillColor=none;align=center;verticalAlign=middle;whiteSpace=wrap;rounded=0;shadow=0;fontSize=27;fontColor=#FFFFFF;fontStyle=1" parent="1" vertex="1">
          <mxGeometry x="1156" y="425" width="280" height="60" as="geometry" />
        </mxCell>
        <mxCell id="60da8b9f42644d3a-33" value="Events&lt;div&gt;Social Inbox&lt;/div&gt;&lt;div&gt;Smart Content&lt;/div&gt;" style="text;html=1;strokeColor=none;fillColor=none;align=center;verticalAlign=middle;whiteSpace=wrap;rounded=0;shadow=0;fontSize=14;fontColor=#FFFFFF;" parent="1" vertex="1">
          <mxGeometry x="1156" y="725" width="280" height="90" as="geometry" />
        </mxCell>
        <mxCell id="60da8b9f42644d3a-34" value="" style="line;strokeWidth=2;html=1;rounded=0;shadow=0;fontSize=27;align=center;fillColor=none;strokeColor=#FFFFFF;" parent="1" vertex="1">
          <mxGeometry x="1176" y="485" width="240" height="10" as="geometry" />
        </mxCell>
        <mxCell id="60da8b9f42644d3a-35" value="" style="line;strokeWidth=2;html=1;rounded=0;shadow=0;fontSize=27;align=center;fillColor=none;strokeColor=#FFFFFF;" parent="1" vertex="1">
          <mxGeometry x="1176" y="705" width="240" height="10" as="geometry" />
        </mxCell>
        <mxCell id="60da8b9f42644d3a-36" value="CUSTOMERS" style="ellipse;whiteSpace=wrap;html=1;rounded=0;shadow=0;strokeWidth=6;fontSize=14;align=center;fillColor=#68B85C;strokeColor=#FFFFFF;fontColor=#FFFFFF;" parent="1" vertex="1">
          <mxGeometry x="1099" y="545" width="115" height="115" as="geometry" />
        </mxCell>
        <mxCell id="60da8b9f42644d3a-37" value="" style="html=1;shadow=0;dashed=0;align=center;verticalAlign=middle;shape=mxgraph.arrows2.stylisedArrow;dy=0.6;dx=40;notch=15;feather=0.4;rounded=0;strokeWidth=1;fontSize=27;strokeColor=none;fillColor=#fff2cc;" parent="1" vertex="1">
          <mxGeometry x="1246" y="573" width="100" height="60" as="geometry" />
        </mxCell>
        <mxCell id="60da8b9f42644d3a-38" value="PROMOTERS" style="ellipse;whiteSpace=wrap;html=1;rounded=0;shadow=0;strokeWidth=6;fontSize=14;align=center;fillColor=#BF639A;strokeColor=#FFFFFF;fontColor=#FFFFFF;" parent="1" vertex="1">
          <mxGeometry x="1379" y="545" width="115" height="115" as="geometry" />
        </mxCell>
        <mxCell id="iT0YJ-fQIAEjny3zQJJ--1" value="" style="whiteSpace=wrap;html=1;rounded=1;shadow=0;strokeWidth=8;fontSize=20;align=center;fillColor=#FED217;strokeColor=#FFFFFF;" vertex="1" parent="1">
          <mxGeometry x="357" y="880" width="280" height="430" as="geometry" />
        </mxCell>
        <mxCell id="iT0YJ-fQIAEjny3zQJJ--2" value="ATTRACT" style="text;html=1;strokeColor=none;fillColor=none;align=center;verticalAlign=middle;whiteSpace=wrap;rounded=0;shadow=0;fontSize=27;fontColor=#FFFFFF;fontStyle=1" vertex="1" parent="1">
          <mxGeometry x="357" y="900" width="280" height="60" as="geometry" />
        </mxCell>
        <mxCell id="iT0YJ-fQIAEjny3zQJJ--3" value="Blog&lt;div&gt;Keywords&lt;/div&gt;&lt;div&gt;Social Media&lt;/div&gt;" style="text;html=1;strokeColor=none;fillColor=none;align=center;verticalAlign=middle;whiteSpace=wrap;rounded=0;shadow=0;fontSize=14;fontColor=#FFFFFF;" vertex="1" parent="1">
          <mxGeometry x="357" y="1200" width="280" height="90" as="geometry" />
        </mxCell>
        <mxCell id="iT0YJ-fQIAEjny3zQJJ--4" value="" style="line;strokeWidth=2;html=1;rounded=0;shadow=0;fontSize=27;align=center;fillColor=none;strokeColor=#FFFFFF;" vertex="1" parent="1">
          <mxGeometry x="377" y="960" width="240" height="10" as="geometry" />
        </mxCell>
        <mxCell id="iT0YJ-fQIAEjny3zQJJ--5" value="" style="line;strokeWidth=2;html=1;rounded=0;shadow=0;fontSize=27;align=center;fillColor=none;strokeColor=#FFFFFF;" vertex="1" parent="1">
          <mxGeometry x="377" y="1180" width="240" height="10" as="geometry" />
        </mxCell>
        <mxCell id="iT0YJ-fQIAEjny3zQJJ--6" value="STRANGERS" style="ellipse;whiteSpace=wrap;html=1;rounded=0;shadow=0;strokeWidth=6;fontSize=14;align=center;fillColor=#BFB4A9;strokeColor=#FFFFFF;fontColor=#FFFFFF;" vertex="1" parent="1">
          <mxGeometry x="300" y="1020" width="115" height="115" as="geometry" />
        </mxCell>
        <mxCell id="iT0YJ-fQIAEjny3zQJJ--7" value="" style="html=1;shadow=0;dashed=0;align=center;verticalAlign=middle;shape=mxgraph.arrows2.stylisedArrow;dy=0.6;dx=40;notch=15;feather=0.4;rounded=0;strokeWidth=1;fontSize=27;strokeColor=none;fillColor=#fff2cc;" vertex="1" parent="1">
          <mxGeometry x="447" y="1048" width="100" height="60" as="geometry" />
        </mxCell>
        <mxCell id="iT0YJ-fQIAEjny3zQJJ--8" value="" style="whiteSpace=wrap;html=1;rounded=1;shadow=0;strokeWidth=8;fontSize=20;align=center;fillColor=#FFC001;strokeColor=#FFFFFF;" vertex="1" parent="1">
          <mxGeometry x="637" y="880" width="280" height="430" as="geometry" />
        </mxCell>
        <mxCell id="iT0YJ-fQIAEjny3zQJJ--9" value="CONVERT" style="text;html=1;strokeColor=none;fillColor=none;align=center;verticalAlign=middle;whiteSpace=wrap;rounded=0;shadow=0;fontSize=27;fontColor=#FFFFFF;fontStyle=1" vertex="1" parent="1">
          <mxGeometry x="637" y="900" width="280" height="60" as="geometry" />
        </mxCell>
        <mxCell id="iT0YJ-fQIAEjny3zQJJ--10" value="Forms&lt;div&gt;Calls-to-Action&lt;/div&gt;&lt;div&gt;Landing Pages&lt;/div&gt;" style="text;html=1;strokeColor=none;fillColor=none;align=center;verticalAlign=middle;whiteSpace=wrap;rounded=0;shadow=0;fontSize=14;fontColor=#FFFFFF;" vertex="1" parent="1">
          <mxGeometry x="637" y="1200" width="280" height="90" as="geometry" />
        </mxCell>
        <mxCell id="iT0YJ-fQIAEjny3zQJJ--11" value="" style="line;strokeWidth=2;html=1;rounded=0;shadow=0;fontSize=27;align=center;fillColor=none;strokeColor=#FFFFFF;" vertex="1" parent="1">
          <mxGeometry x="657" y="960" width="240" height="10" as="geometry" />
        </mxCell>
        <mxCell id="iT0YJ-fQIAEjny3zQJJ--12" value="" style="line;strokeWidth=2;html=1;rounded=0;shadow=0;fontSize=27;align=center;fillColor=none;strokeColor=#FFFFFF;" vertex="1" parent="1">
          <mxGeometry x="657" y="1180" width="240" height="10" as="geometry" />
        </mxCell>
        <mxCell id="iT0YJ-fQIAEjny3zQJJ--13" value="VISITORS" style="ellipse;whiteSpace=wrap;html=1;rounded=0;shadow=0;strokeWidth=6;fontSize=14;align=center;fillColor=#397DAA;strokeColor=#FFFFFF;fontColor=#FFFFFF;" vertex="1" parent="1">
          <mxGeometry x="580" y="1020" width="115" height="115" as="geometry" />
        </mxCell>
        <mxCell id="iT0YJ-fQIAEjny3zQJJ--14" value="" style="html=1;shadow=0;dashed=0;align=center;verticalAlign=middle;shape=mxgraph.arrows2.stylisedArrow;dy=0.6;dx=40;notch=15;feather=0.4;rounded=0;strokeWidth=1;fontSize=27;strokeColor=none;fillColor=#fff2cc;" vertex="1" parent="1">
          <mxGeometry x="727" y="1048" width="100" height="60" as="geometry" />
        </mxCell>
        <mxCell id="iT0YJ-fQIAEjny3zQJJ--15" value="" style="whiteSpace=wrap;html=1;rounded=1;shadow=0;strokeWidth=8;fontSize=20;align=center;fillColor=#FFB001;strokeColor=#FFFFFF;" vertex="1" parent="1">
          <mxGeometry x="917" y="880" width="280" height="430" as="geometry" />
        </mxCell>
        <mxCell id="iT0YJ-fQIAEjny3zQJJ--16" value="CLOSE" style="text;html=1;strokeColor=none;fillColor=none;align=center;verticalAlign=middle;whiteSpace=wrap;rounded=0;shadow=0;fontSize=27;fontColor=#FFFFFF;fontStyle=1" vertex="1" parent="1">
          <mxGeometry x="917" y="900" width="280" height="60" as="geometry" />
        </mxCell>
        <mxCell id="iT0YJ-fQIAEjny3zQJJ--17" value="Email&lt;div&gt;Signals&lt;/div&gt;&lt;div&gt;Workflows&lt;/div&gt;" style="text;html=1;strokeColor=none;fillColor=none;align=center;verticalAlign=middle;whiteSpace=wrap;rounded=0;shadow=0;fontSize=14;fontColor=#FFFFFF;" vertex="1" parent="1">
          <mxGeometry x="917" y="1200" width="280" height="90" as="geometry" />
        </mxCell>
        <mxCell id="iT0YJ-fQIAEjny3zQJJ--18" value="" style="line;strokeWidth=2;html=1;rounded=0;shadow=0;fontSize=27;align=center;fillColor=none;strokeColor=#FFFFFF;" vertex="1" parent="1">
          <mxGeometry x="937" y="960" width="240" height="10" as="geometry" />
        </mxCell>
        <mxCell id="iT0YJ-fQIAEjny3zQJJ--19" value="" style="line;strokeWidth=2;html=1;rounded=0;shadow=0;fontSize=27;align=center;fillColor=none;strokeColor=#FFFFFF;" vertex="1" parent="1">
          <mxGeometry x="937" y="1180" width="240" height="10" as="geometry" />
        </mxCell>
        <mxCell id="iT0YJ-fQIAEjny3zQJJ--20" value="LEADS" style="ellipse;whiteSpace=wrap;html=1;rounded=0;shadow=0;strokeWidth=6;fontSize=14;align=center;fillColor=#EF9353;strokeColor=#FFFFFF;fontColor=#FFFFFF;" vertex="1" parent="1">
          <mxGeometry x="860" y="1020" width="115" height="115" as="geometry" />
        </mxCell>
        <mxCell id="iT0YJ-fQIAEjny3zQJJ--21" value="" style="html=1;shadow=0;dashed=0;align=center;verticalAlign=middle;shape=mxgraph.arrows2.stylisedArrow;dy=0.6;dx=40;notch=15;feather=0.4;rounded=0;strokeWidth=1;fontSize=27;strokeColor=none;fillColor=#fff2cc;" vertex="1" parent="1">
          <mxGeometry x="1007" y="1048" width="100" height="60" as="geometry" />
        </mxCell>
        <mxCell id="iT0YJ-fQIAEjny3zQJJ--22" value="" style="whiteSpace=wrap;html=1;rounded=1;shadow=0;strokeWidth=8;fontSize=20;align=center;fillColor=#FE9900;strokeColor=#FFFFFF;" vertex="1" parent="1">
          <mxGeometry x="1197" y="880" width="280" height="430" as="geometry" />
        </mxCell>
        <mxCell id="iT0YJ-fQIAEjny3zQJJ--23" value="DELIGHT" style="text;html=1;strokeColor=none;fillColor=none;align=center;verticalAlign=middle;whiteSpace=wrap;rounded=0;shadow=0;fontSize=27;fontColor=#FFFFFF;fontStyle=1" vertex="1" parent="1">
          <mxGeometry x="1197" y="900" width="280" height="60" as="geometry" />
        </mxCell>
        <mxCell id="iT0YJ-fQIAEjny3zQJJ--24" value="Events&lt;div&gt;Social Inbox&lt;/div&gt;&lt;div&gt;Smart Content&lt;/div&gt;" style="text;html=1;strokeColor=none;fillColor=none;align=center;verticalAlign=middle;whiteSpace=wrap;rounded=0;shadow=0;fontSize=14;fontColor=#FFFFFF;" vertex="1" parent="1">
          <mxGeometry x="1197" y="1200" width="280" height="90" as="geometry" />
        </mxCell>
        <mxCell id="iT0YJ-fQIAEjny3zQJJ--25" value="" style="line;strokeWidth=2;html=1;rounded=0;shadow=0;fontSize=27;align=center;fillColor=none;strokeColor=#FFFFFF;" vertex="1" parent="1">
          <mxGeometry x="1217" y="960" width="240" height="10" as="geometry" />
        </mxCell>
        <mxCell id="iT0YJ-fQIAEjny3zQJJ--26" value="" style="line;strokeWidth=2;html=1;rounded=0;shadow=0;fontSize=27;align=center;fillColor=none;strokeColor=#FFFFFF;" vertex="1" parent="1">
          <mxGeometry x="1217" y="1180" width="240" height="10" as="geometry" />
        </mxCell>
        <mxCell id="iT0YJ-fQIAEjny3zQJJ--27" value="CUSTOMERS" style="ellipse;whiteSpace=wrap;html=1;rounded=0;shadow=0;strokeWidth=6;fontSize=14;align=center;fillColor=#68B85C;strokeColor=#FFFFFF;fontColor=#FFFFFF;" vertex="1" parent="1">
          <mxGeometry x="1140" y="1020" width="115" height="115" as="geometry" />
        </mxCell>
        <mxCell id="iT0YJ-fQIAEjny3zQJJ--28" value="" style="html=1;shadow=0;dashed=0;align=center;verticalAlign=middle;shape=mxgraph.arrows2.stylisedArrow;dy=0.6;dx=40;notch=15;feather=0.4;rounded=0;strokeWidth=1;fontSize=27;strokeColor=none;fillColor=#fff2cc;" vertex="1" parent="1">
          <mxGeometry x="1287" y="1048" width="100" height="60" as="geometry" />
        </mxCell>
        <mxCell id="iT0YJ-fQIAEjny3zQJJ--29" value="PROMOTERS" style="ellipse;whiteSpace=wrap;html=1;rounded=0;shadow=0;strokeWidth=6;fontSize=14;align=center;fillColor=#BF639A;strokeColor=#FFFFFF;fontColor=#FFFFFF;" vertex="1" parent="1">
          <mxGeometry x="1420" y="1020" width="115" height="115" as="geometry" />
        </mxCell>
      </root>
    </mxGraphModel>
  </diagram>
</mxfile>
